<svg width="58" height="46" viewBox="0 0 58 46" fill="none" xmlns="http://www.w3.org/2000/svg">
<path fill-rule="evenodd" clip-rule="evenodd" d="M24.7486 0.26974C23.7266 0.750234 23.2231 1.58066 23.2231 2.78596V3.5206L20.5311 3.59143C19.0505 3.63045 17.023 3.70495 16.0255 3.75713C13.9032 3.8679 13.6637 3.95624 12.6644 4.9963C11.6579 6.0438 10.7352 7.58655 9.06881 11.0086L7.52445 14.1798L5.14416 14.1847C3.83499 14.1874 2.57627 14.2422 2.34708 14.3065C1.23616 14.6179 0.199487 15.7885 0.0308264 16.9218C-0.197682 18.4572 0.871978 20.1283 2.31886 20.496L2.81736 20.6227L2.60631 20.9242C2.49024 21.0901 2.16584 21.6892 1.88553 22.2556C-0.0125858 26.0904 -0.491025 30.572 0.552565 34.7432C0.973084 36.4246 1.81979 38.2319 2.46077 38.8165L2.91019 39.2264L2.95621 41.5547C3.00586 44.0717 3.05936 44.3325 3.67721 45.0723C3.85551 45.2858 4.25857 45.5814 4.57277 45.7291C5.1309 45.9915 5.22067 45.9978 8.43928 45.9989L11.7343 46L12.349 45.6853C12.7514 45.4793 13.0814 45.1993 13.3045 44.8747C13.6399 44.3864 13.6461 44.3509 13.7019 42.5861C13.7521 40.9995 13.7804 40.7951 13.9488 40.8079C19.6139 41.2404 40.3158 41.2241 43.7106 40.7846L44.1924 40.7221V42.1414C44.1924 44.3107 44.5326 45.1223 45.6849 45.7021L46.2772 46L49.4569 45.995C52.8759 45.9896 53.137 45.9533 53.8813 45.3801C54.0979 45.2133 54.4166 44.834 54.5895 44.5371C54.9022 44 54.9039 43.9859 54.94 41.5809L54.9762 39.1643L55.2639 39.0089C55.7948 38.722 56.5331 37.4298 57.0379 35.9034C58.5332 31.3834 57.9484 25.622 55.5616 21.3578C55.3556 20.9899 55.1871 20.6742 55.1871 20.6562C55.1871 20.6383 55.4064 20.5678 55.6745 20.4997C56.6923 20.2409 57.6593 19.2373 57.9109 18.1786C58.2539 16.7354 57.5847 15.2508 56.2775 14.5546C55.7039 14.2492 55.6671 14.245 53.1419 14.2093L50.5867 14.1733L49.3044 11.5774C47.3192 7.55863 46.2854 5.87902 45.1194 4.77808C44.2268 3.93507 44.0337 3.87225 41.9876 3.7601C40.9871 3.70529 38.9635 3.62919 37.4909 3.59098L34.8132 3.52152L34.7591 2.76147C34.6975 1.89385 34.4188 1.26151 33.8589 0.718995C33.1574 0.0391621 32.8794 -0.00123199 28.9045 2.67439e-05C25.3822 0.00105662 25.3101 0.00574854 24.7486 0.26974ZM32.5835 2.22353C32.672 2.34574 32.7443 2.69327 32.7443 2.99594V3.54623H28.9471H25.15V2.98243C25.15 2.50674 25.1976 2.38064 25.4547 2.17661C25.7515 1.94089 25.8454 1.93551 29.0911 1.96801C32.2375 1.99959 32.4317 2.01378 32.5835 2.22353ZM36.9342 5.60541C39.9555 5.66503 42.655 5.74822 42.9328 5.79022C43.3301 5.85041 43.5428 5.97548 43.9277 6.3753C44.953 7.44042 46.3281 9.82744 48.1644 13.7306L49.2681 16.0764L48.9688 16.1612C48.6789 16.2433 44.7191 16.9346 44.5385 16.9346C44.4892 16.9346 44.2521 16.5949 44.0117 16.1797C41.9847 12.6805 37.2306 11.9427 34.2709 14.6679C33.531 15.3492 32.8326 16.3668 32.5464 17.1805L32.3554 17.7233L30.9346 17.7581C26.4453 17.868 18.3851 17.5493 14.382 17.1037C12.4416 16.8877 9.13081 16.3662 8.93869 16.2464C8.82806 16.1773 9.0237 15.6575 9.74164 14.1132C11.7651 9.76096 13.0887 7.38103 14.0334 6.39636C14.5019 5.90808 14.6172 5.84778 15.2279 5.77191C17.0018 5.55151 29.3846 5.45665 36.9342 5.60541ZM39.858 15.2008C40.2281 15.3171 40.7631 15.5735 41.0467 15.7705C41.5845 16.144 42.3405 17.0114 42.2276 17.1254C42.1343 17.2196 40.7226 17.3508 38.2416 17.4958C37.0571 17.565 35.7175 17.6467 35.2647 17.6774L34.4412 17.733L34.6641 17.2919C35.5858 15.468 37.8312 14.564 39.858 15.2008ZM6.561 16.1912C6.561 16.2229 6.02169 16.7893 5.36258 17.4499L4.16404 18.6511H3.54335C2.50668 18.6511 1.96941 18.1895 1.99389 17.3197C2.00727 16.8411 2.36816 16.4034 2.87097 16.2558C3.23346 16.1495 6.561 16.0912 6.561 16.1912ZM55.1764 16.2831C55.9378 16.5524 56.2488 17.4447 55.8146 18.1137C55.5793 18.4763 55.1001 18.6511 54.3414 18.6511C53.8338 18.6511 53.7255 18.6092 53.5248 18.3351C53.3975 18.1613 52.8981 17.5949 52.4149 17.0764L51.5364 16.1336L53.1634 16.14C54.1155 16.1438 54.9505 16.2032 55.1764 16.2831ZM52.2896 19.967C53.9152 22.0679 54.9702 24.3288 55.5455 26.9447C55.8718 28.4289 55.9545 31.3838 55.7129 32.9244C55.503 34.2624 54.9841 35.9625 54.5345 36.7854C54.1579 37.4748 53.7385 37.6628 51.852 37.9881C47.3782 38.7595 39.8232 39.1381 28.9471 39.1359C15.7621 39.1331 5.8774 38.479 3.96942 37.4829C3.54471 37.2612 2.8024 35.6391 2.41282 34.0815C2.00863 32.465 1.90412 29.4367 2.19168 27.6707C2.71932 24.4296 4.39459 21.1957 6.76797 18.8363L7.56005 18.0489L9.12911 18.349C18.5513 20.1503 36.9055 20.2663 46.856 18.5871C47.7911 18.4293 48.9643 18.2057 49.463 18.0903L50.3698 17.8803L50.9755 18.4659C51.3087 18.7881 51.9 19.4635 52.2896 19.967ZM8.83305 24.4907C8.03497 24.6596 7.20708 25.1263 6.57721 25.7621C4.12743 28.2352 5.19845 32.3915 8.53495 33.3598C11.2552 34.1491 14.0436 32.1688 14.2377 29.3098C14.3092 28.2575 14.12 27.4829 13.5644 26.5522C12.6411 25.0056 10.6006 24.1165 8.83305 24.4907ZM47.2578 24.4912C44.9316 24.9812 43.3013 27.3879 43.7247 29.7073C44.1631 32.1095 46.098 33.6438 48.5109 33.5028C49.6971 33.4335 50.6252 32.9772 51.4833 32.0414C54.0494 29.2432 52.2649 24.7308 48.477 24.4397C48.0841 24.4096 47.5355 24.4327 47.2578 24.4912ZM17.6602 26.2349C17.4498 26.3779 17.1573 26.674 17.01 26.8928C16.7837 27.2293 16.7497 27.3966 16.7896 27.9772C16.832 28.5936 16.9329 28.8274 17.7774 30.2658C18.8264 32.0525 19.1085 32.407 19.766 32.7652C20.2172 33.011 20.2592 33.0122 28.7204 33.0468C34.8028 33.0716 37.3505 33.0446 37.6749 32.9518C38.6075 32.6853 38.8988 32.3792 40.0351 30.4708C40.627 29.477 41.1465 28.474 41.1896 28.2421C41.3341 27.463 40.8507 26.5378 40.0892 26.1361C39.8319 26.0004 38.0493 25.9746 28.9129 25.9746H18.0426L17.6602 26.2349ZM10.8179 26.6482C11.7923 27.095 12.4624 28.3479 12.2871 29.3953C12.11 30.4535 11.1347 31.3878 10.0506 31.5378C9.03413 31.6784 7.93557 31.0412 7.42358 30.014C7.20073 29.5667 7.18498 28.5054 7.39388 28.0021C7.94339 26.6784 9.5222 26.0541 10.8179 26.6482ZM49.2427 26.6482C50.6261 27.2826 51.1343 29.0545 50.3094 30.3676C48.9713 32.4978 45.6659 31.5298 45.6659 29.008C45.6659 27.9473 46.1569 27.1218 47.0546 26.6731C47.6639 26.3687 48.6096 26.358 49.2427 26.6482ZM38.8527 28.5779C38.6497 28.9399 38.2486 29.6221 37.9615 30.0941L37.4396 30.9524L29.0562 30.9796C24.4453 30.9946 20.6159 30.9689 20.5464 30.9224C20.4769 30.8759 20.0335 30.1813 19.561 29.379L18.7022 27.92H28.962H39.2217L38.8527 28.5779ZM6.61767 40.1074C7.24109 40.2002 8.65646 40.3626 9.76307 40.4683L11.775 40.6606V42.1795C11.775 43.6194 11.7618 43.7077 11.523 43.8765C11.3115 44.0262 10.8204 44.0547 8.45526 44.0547C5.69027 44.0547 5.28766 44.0086 5.06085 43.6656C5.01505 43.5964 4.97686 42.702 4.97584 41.6781L4.97414 39.8164L5.22917 39.8776C5.36938 39.9113 5.99426 40.0147 6.61767 40.1074ZM53.013 41.6618L52.9768 43.5029L52.6587 43.7788C52.3413 44.0542 52.3365 44.0547 49.5386 44.0547C47.1859 44.0547 46.6961 44.0261 46.4846 43.8765C46.2454 43.7075 46.2326 43.6201 46.2326 42.1601C46.2326 41.0957 46.2719 40.6218 46.3602 40.6218C46.848 40.6218 50.3797 40.2316 51.4466 40.0598C52.1635 39.9443 52.8173 39.8433 52.8996 39.8353C53.0191 39.8237 53.0419 40.1901 53.013 41.6618Z" fill="#3685BB"/>
</svg>
