<svg width="63" height="28" viewBox="0 0 63 28" fill="none" xmlns="http://www.w3.org/2000/svg">
<path fill-rule="evenodd" clip-rule="evenodd" d="M1.83762 0.144169C1.19048 0.415011 0.561893 1.02783 0.272879 1.6698L0 2.27606L0.0344275 12.6878C0.0368611 13.4222 0.038884 14.1064 0.0407695 14.7442C0.0636017 22.467 0.0662705 23.3697 0.533739 23.8939C0.595614 23.9632 0.665631 24.026 0.744917 24.0971C0.794414 24.1414 0.847522 24.189 0.904516 24.2435C1.68199 24.9864 1.8925 25.0379 4.32986 25.0816L6.55825 25.1215L6.71743 25.4651C6.96033 25.9897 7.80857 26.8537 8.48327 27.264C10.3504 28.3996 12.8009 28.1989 14.4286 26.7774C14.8155 26.4395 15.2785 25.9244 15.4573 25.6328L15.7824 25.1026H30.5035H45.2248L45.4371 25.4972C46.4107 27.3064 48.8135 28.3548 50.9215 27.8901C52.2409 27.5993 53.5672 26.677 54.1338 25.6564L54.4412 25.1026H57.4359C60.8139 25.1026 61.2741 25.0226 62.0526 24.3L62.0643 24.2892C62.297 24.0733 62.4684 23.9141 62.5956 23.7274C62.952 23.2041 62.9603 22.4643 62.9917 19.6508L62.9922 19.601C63.0175 17.3261 62.9809 15.8712 62.8875 15.4415C62.6562 14.3763 61.9692 13.2083 61.1176 12.4321C59.7852 11.2176 59.6216 11.1719 52.0316 9.88952L45.3022 8.75273L42.8635 5.25837C41.5223 3.33649 40.2058 1.54912 39.938 1.28654C39.6702 1.02395 39.0807 0.634619 38.6279 0.42132L37.805 0.0335711L20.0167 0.00710749C5.33233 -0.0147445 2.16042 0.00917216 1.83762 0.144169ZM28.4622 7.19615V12.5984H23.3171H18.172V7.19615V1.79387H23.3171H28.4622V7.19615ZM37.6252 1.96492C37.8609 2.059 38.2157 2.25785 38.4138 2.40669C38.6118 2.55565 39.9123 4.30805 41.3039 6.30107C44.077 10.2729 44.0868 10.2943 43.593 11.3333C43.3181 11.9118 42.8407 12.3048 42.197 12.4826C41.8991 12.5649 39.7508 12.5969 36.0845 12.5735L30.4313 12.5377L30.3982 7.1658L30.3651 1.79387H33.7809C36.4321 1.79387 37.2928 1.8321 37.6252 1.96492ZM59.7182 13.6526C60.2129 14.0504 60.8571 14.9802 60.8571 15.2965C60.8571 15.5028 60.7342 15.5166 59.1738 15.4852L57.4905 15.4513L57.4495 14.9711C57.3857 14.2226 57.5332 13.7222 57.9521 13.2663L58.3376 12.8467L58.8181 13.081C59.0825 13.2098 59.4875 13.4671 59.7182 13.6526ZM12.1229 20.3958C12.8361 20.5993 13.9115 21.6109 14.0938 22.2497C14.5442 23.8278 13.8193 25.3278 12.3059 25.95C10.1921 26.8189 7.78087 25.0877 8.05172 22.8953C8.28433 21.0125 10.188 19.8437 12.1229 20.3958ZM51.1438 20.534C52.5071 21.1406 53.2026 22.4986 52.8563 23.8778C52.4078 25.6646 50.4067 26.6583 48.6837 25.95C46.5797 25.085 46.0868 22.5719 47.7266 21.0697C48.6471 20.2265 49.9824 20.0172 51.1438 20.534ZM4.13422 11.5665L4.09586 6.6802L4.05737 1.79387H3.29602C2.65702 1.79387 2.48463 1.84182 2.22293 2.0919L1.91105 2.38981V10.8934V19.3968V21.2178V21.8949C1.91105 22.4813 1.96072 22.6194 2.28238 22.9268L2.65371 23.2816H4.35273H6.05175L6.19505 22.4818C6.48038 20.8905 7.60023 19.4882 9.12012 18.8193C9.75188 18.5412 10.0232 18.4969 11.1214 18.492C12.2835 18.4868 12.4621 18.5182 13.2179 18.8605C14.7657 19.5614 15.9375 21.0834 16.102 22.6066L16.175 23.2816H30.4948H44.8146L44.8875 22.6066C45.0541 21.0652 46.1956 19.5738 47.7465 18.8716C48.5208 18.5212 48.7069 18.4868 49.8047 18.4911C51.4469 18.4975 52.2559 18.8027 53.3045 19.811C54.1762 20.6494 54.6033 21.4232 54.8013 22.5229L54.9378 23.2816H57.6531H60.3685L60.7398 22.9268C61.0615 22.6194 61.1111 22.4813 61.1111 21.8949V21.2178V19.3968V18.3649V17.333H58.8754H56.6396L56.28 16.9651C55.47 16.1364 55.2703 14.1333 55.8841 12.993C56.0368 12.7093 56.1463 12.4715 56.1274 12.4647C56.1086 12.4579 53.7778 12.0555 50.948 11.5705C47.3044 10.9459 45.7758 10.7282 45.7096 10.8241C45.6583 10.8986 45.6142 11.0961 45.6115 11.263C45.5978 12.1418 44.3979 13.5935 43.2894 14.0725L42.627 14.3587L28.3997 14.3916C20.8482 14.4091 16.553 14.3969 14.7868 14.3502C14.2043 14.3347 13.8969 14.3156 13.8385 14.2924C13.5093 14.1621 13.2175 13.7316 13.2175 13.3762C13.2175 13.2762 13.3579 13.0604 13.5294 12.8965C13.8169 12.6216 13.9357 12.5984 15.0538 12.5984H16.2664V7.19615V1.79387H11.1214H5.97629V6.33846C5.97629 9.24769 6.02482 11.006 6.11108 11.2248C6.31167 11.7331 6.98434 12.3419 7.49516 12.4775C7.74276 12.5433 8.52138 12.5973 9.22543 12.5977C10.3986 12.5984 10.5285 12.6219 10.7817 12.8794C11.1535 13.2578 11.1338 13.7509 10.7312 14.1355C10.5335 14.3245 10.4489 14.3988 10.0474 14.4164C9.79311 14.4275 9.41169 14.4158 8.79388 14.3961C7.49351 14.3546 7.06488 14.2939 6.56956 14.0811C5.6235 13.6746 5.04179 13.166 4.56794 12.3309L4.13422 11.5665Z" fill="#3685BB"/>
<path d="M10.7817 12.8794C11.1535 13.2578 11.1338 13.7509 10.7312 14.1355C10.5335 14.3245 10.4489 14.3988 10.0474 14.4164L13.8385 14.2924C13.5093 14.1621 13.2175 13.7316 13.2175 13.3762C13.2175 13.2762 13.3579 13.0604 13.5294 12.8965C13.8169 12.6216 13.9357 12.5984 15.0538 12.5984L9.22543 12.5977C10.3986 12.5984 10.5285 12.6219 10.7817 12.8794Z" fill="#3685BB"/>
<path d="M13.8385 14.2924L10.0474 14.4164L14.7868 14.3502C14.2043 14.3347 13.8969 14.3156 13.8385 14.2924Z" fill="#3685BB"/>
</svg>
