<svg width="30" height="29" viewBox="0 0 30 29" fill="none" xmlns="http://www.w3.org/2000/svg">
<path fill-rule="evenodd" clip-rule="evenodd" d="M26.2307 1.08316C25.0163 1.37452 24.3543 1.74553 22.6158 3.10928C21.1461 4.2623 20.3758 4.90747 19.3852 5.81545C18.6119 6.52438 18.38 6.62504 17.8368 6.48755C17.6036 6.42858 15.1546 5.54364 12.3944 4.52105C4.82598 1.71722 4.89582 1.7375 4.09759 2.10794C3.22534 2.51277 1.99464 4.03251 1.99464 4.70477C1.99464 5.09833 2.28424 5.62102 2.67941 5.94069C2.87059 6.09537 4.48619 7.2166 6.26947 8.43232C8.05283 9.64795 9.77802 10.8402 10.1034 11.0815C10.6263 11.4696 11.3051 12.1566 11.3754 12.3692C11.3892 12.4109 10.532 13.2638 9.47035 14.2644C8.40873 15.2651 7.2919 16.3214 6.9885 16.6117L6.43674 17.1396L5.22214 16.5472C3.4069 15.6618 2.94025 15.6656 1.93203 16.5743C0.933097 17.4746 0.775932 17.9796 1.27577 18.6832C1.57474 19.1041 2.98256 20.8755 5.34398 23.8021C6.69339 25.4745 6.99006 25.7979 7.35508 25.994C7.91908 26.297 8.39731 26.2951 8.97002 25.9873C9.4554 25.7265 9.75535 25.3718 9.98678 24.7849C10.2283 24.1722 10.2036 23.5662 9.88228 22.2291L9.60196 21.0628L9.81064 20.8907C10.4189 20.3889 14.8888 17.0096 14.9454 17.0086C15.1656 17.005 15.9872 18.8323 17.5645 22.833C19.1199 26.7782 19.3206 27.2388 19.6171 27.543C20.2218 28.1633 20.8398 28.1534 21.9439 27.5057C22.6293 27.1037 23.1258 26.5623 23.37 25.9504C23.682 25.1688 23.6259 24.5087 22.6662 17.6624C22.1866 14.2415 21.7943 11.3319 21.7943 11.1963C21.7943 10.8772 21.8819 10.7934 24.3858 8.71702C27.1662 6.41147 27.6746 5.88034 28.4078 4.5157C29.1046 3.21894 29.1796 2.42785 28.6692 1.75818C28.1825 1.11966 27.2056 0.84923 26.2307 1.08316ZM27.7277 2.51083C27.9384 2.76763 27.8752 3.09411 27.4527 3.93274C26.7706 5.28651 26.6425 5.41427 22.5572 8.8146C21.7403 9.49457 20.9852 10.1881 20.8794 10.3557C20.5411 10.8913 20.6015 11.6179 21.5324 18.2059C21.9928 21.4635 22.3694 24.3939 22.3694 24.7178C22.3694 25.3985 22.2308 25.79 21.8517 26.1806C21.5277 26.5145 20.8948 26.8426 20.5747 26.8426C20.2752 26.8426 20.3721 27.0626 18.5869 22.3345C17.8171 20.2957 17.0308 18.3133 16.8395 17.9292C16.4708 17.1885 15.6625 15.8219 15.3979 15.4923L15.2397 15.2951L14.4708 15.8563C14.0478 16.165 12.5123 17.3223 11.0584 18.4282C8.96739 20.0187 8.40446 20.486 8.36486 20.6641C8.33347 20.805 8.44077 21.3886 8.65133 22.2234C9.02326 23.6976 9.03295 24.0796 8.71024 24.5452C8.60894 24.6912 8.41267 24.8711 8.27416 24.9449C8.05529 25.0614 7.99409 25.0643 7.80767 24.9671C7.68962 24.9056 6.52662 23.5048 5.22321 21.8542C3.9198 20.2035 2.69715 18.6581 2.50614 18.4198C2.31521 18.1816 2.15895 17.9383 2.15895 17.879C2.15895 17.7086 3.08173 16.9493 3.2904 16.948C3.3931 16.9473 3.7628 17.0883 4.11196 17.2612C4.46113 17.4342 5.12725 17.7475 5.59217 17.9576C6.33264 18.292 6.46787 18.329 6.68197 18.2553C6.87857 18.1876 12.1245 13.3877 12.7019 12.7472C12.8489 12.5841 12.8438 12.5681 12.4598 11.9856C11.9969 11.2832 11.1208 10.3987 10.3746 9.88059C10.0809 9.67659 8.45416 8.56737 6.75969 7.41565C3.14359 4.95776 3.24793 5.0319 3.18894 4.88006C3.16355 4.81492 3.21539 4.64564 3.30412 4.50402C3.54804 4.11435 4.58617 3.15762 4.76502 3.15762C5.07007 3.15762 5.86731 3.43746 11.4015 5.48678C14.4742 6.62455 17.1713 7.60991 17.3953 7.67642C17.9826 7.85074 18.6486 7.83119 19.0871 7.62678C19.2883 7.53293 19.8225 7.1225 20.2744 6.71467C21.2861 5.80142 22.7898 4.53873 23.9173 3.65574C25.2151 2.63923 26.1351 2.24332 27.085 2.2928C27.4782 2.31324 27.5995 2.35444 27.7277 2.51083Z" fill="#3685BB" stroke="#3685BB" stroke-width="0.5"/>
</svg>
