<svg width="35" height="43" viewBox="0 0 35 43" fill="none" xmlns="http://www.w3.org/2000/svg">
<path fill-rule="evenodd" clip-rule="evenodd" d="M12.4742 0.079411C10.059 0.234665 6.51721 0.766714 5.56069 1.11788C4.75868 1.41226 4.14638 1.81779 3.46349 2.50677C2.74686 3.22978 2.30827 3.93977 1.98472 4.90053L1.75844 5.57262L1.73593 18.7418C1.71118 33.2242 1.68584 32.4458 2.21656 33.5091C2.35562 33.7877 2.68531 34.234 2.94922 34.5009C3.63826 35.1978 4.24274 35.5154 5.28798 35.7299L5.74402 35.8235L2.94016 38.7373C1.39801 40.3398 0.097924 41.7532 0.0509908 41.878C-0.0708692 42.2021 0.0287289 42.5421 0.317222 42.7877L0.566674 43H3.78878C6.84234 43 7.02143 42.9915 7.21398 42.8384C7.32571 42.7496 7.98726 41.88 8.68411 40.9061L9.95114 39.1354H17.5413H25.1314L26.3984 40.9061C27.0953 41.88 27.7568 42.7496 27.8686 42.8384C28.0609 42.9914 28.2396 43 31.2474 43C34.3625 43 34.4274 42.9966 34.6482 42.821C34.9281 42.5983 35.0498 42.2884 34.9813 41.9729C34.9452 41.8062 34.0561 40.8116 32.1219 38.7739C28.9913 35.4759 29.2128 35.8344 30.1675 35.6106C31.4477 35.3106 32.5433 34.2793 33.0848 32.8646C33.235 32.4723 33.2419 31.9474 33.2642 19.3086C33.2904 4.47509 33.3299 5.45627 32.648 4.02857C32.3366 3.37663 32.1545 3.12283 31.5934 2.55836C30.8405 1.80107 30.2555 1.4163 29.4062 1.12007C28.2708 0.72412 24.9004 0.233993 22.211 0.0737822C20.513 -0.0273683 14.0763 -0.0235877 12.4742 0.079411ZM22.1515 1.75201C24.4694 1.89693 27.6017 2.3222 28.6723 2.63741C29.6504 2.9254 30.6178 3.72974 31.1014 4.65714C31.6524 5.71402 31.6255 4.92859 31.6014 19.2421L31.5797 32.2044L31.4012 32.595C31.173 33.0943 30.632 33.6414 30.1384 33.8722L29.7522 34.0527H17.4997H5.24728L4.8611 33.8722C4.36842 33.6418 3.87783 33.1456 3.62107 32.618L3.41979 32.2044L3.39637 19.3506C3.37951 10.062 3.39911 6.33781 3.46714 5.92379C3.71518 4.41511 4.89947 3.0547 6.32716 2.63867C7.37406 2.33354 10.5508 1.88265 12.5157 1.76024C14.157 1.658 20.5598 1.65254 22.1515 1.75201ZM5.57955 6.78618C5.48817 6.82407 5.33865 6.939 5.24728 7.04174C5.0838 7.22548 5.08114 7.34679 5.08114 14.5268V21.8252L5.31149 22.0581L5.54175 22.291L17.3978 22.3159C28.2559 22.3387 29.2757 22.3292 29.514 22.203C29.6571 22.1272 29.816 21.9725 29.867 21.8591C29.9962 21.5726 29.9987 7.47306 29.8697 7.18666C29.8201 7.07661 29.6742 6.92362 29.5454 6.84667C29.3298 6.71788 28.3784 6.70721 17.5285 6.71208C11.048 6.71502 5.67092 6.74837 5.57955 6.78618ZM16.6691 14.5199V20.6528H11.685H6.70096V14.5199V8.38703H11.685H16.6691V14.5199ZM28.2985 14.5199V20.6528H23.3145H18.3304V14.5199V8.38703H23.3145H28.2985V14.5199ZM9.21383 24.9832C7.89539 25.3423 7.01196 26.3263 6.77223 27.7028C6.3902 29.8962 8.40135 31.9057 10.5735 31.5009C11.901 31.2536 12.8845 30.3333 13.2335 29.012C13.704 27.2305 12.5271 25.3389 10.7049 24.9478C10.1394 24.8265 9.75585 24.8356 9.21383 24.9832ZM24.166 24.9832C22.8475 25.3423 21.9641 26.3263 21.7244 27.7028C21.3424 29.8962 23.3535 31.9057 25.5256 31.5009C26.8531 31.2536 27.8367 30.3333 28.1856 29.012C28.6561 27.2305 27.4792 25.3389 25.657 24.9478C25.0915 24.8265 24.708 24.8356 24.166 24.9832ZM10.9681 26.8443C12.2231 27.7385 11.712 29.7106 10.1852 29.8645C9.79639 29.9037 9.66921 29.8761 9.27888 29.6682C8.90947 29.4714 8.7818 29.3428 8.59357 28.9785C8.29818 28.4065 8.29818 28.0212 8.59357 27.4493C8.7818 27.0849 8.90947 26.9564 9.27888 26.7595C9.66921 26.5516 9.79639 26.5241 10.1852 26.5633C10.4944 26.5945 10.7422 26.6834 10.9681 26.8443ZM25.9202 26.8443C27.1753 27.7385 26.6642 29.7106 25.1374 29.8645C24.7485 29.9037 24.6214 29.8761 24.231 29.6682C23.8616 29.4714 23.7339 29.3428 23.5457 28.9785C23.4119 28.7194 23.3145 28.3973 23.3145 28.2139C23.3145 28.0305 23.4119 27.7084 23.5457 27.4493C23.7339 27.0849 23.8616 26.9564 24.231 26.7595C24.6214 26.5516 24.7485 26.5241 25.1374 26.5633C25.4466 26.5945 25.6943 26.6834 25.9202 26.8443ZM10.2147 35.889C10.1782 35.9517 9.29042 37.1993 8.24203 38.6614L6.33579 41.3198H4.55641H2.77693L4.88436 39.1322C6.0434 37.9289 7.22902 36.6814 7.51909 36.3598L8.04649 35.775H9.16383C10.0821 35.775 10.2693 35.7953 10.2147 35.889ZM23.3127 36.5941L23.9035 37.4132L20.7493 37.4352C19.0145 37.4473 16.1516 37.4473 14.3871 37.4352L11.179 37.4132L11.7698 36.5941L12.3605 35.775H17.5413H22.722L23.3127 36.5941ZM28.88 37.7629C29.9079 38.8521 31.0793 40.0979 31.483 40.5315L32.2169 41.3198H30.4818H28.7467L26.8405 38.6614C25.7921 37.1993 24.9044 35.9517 24.8678 35.889C24.8132 35.7952 24.9978 35.7756 25.9062 35.7788L27.011 35.7827L28.88 37.7629Z" fill="#3685BB"/>
</svg>
