<svg width="58" height="55" viewBox="0 0 58 55" fill="none" xmlns="http://www.w3.org/2000/svg">
<path fill-rule="evenodd" clip-rule="evenodd" d="M42.2457 3.01612C43.4531 1.51173 44.9529 0.571296 46.8543 0.126223C47.8156 -0.0987361 49.8715 -0.0112938 50.8388 0.295616C52.4641 0.811439 53.7853 1.70341 54.7825 2.9583C56.6408 5.29684 57.0442 8.01584 55.9995 11.1605C55.3924 12.9878 53.8263 15.8228 52.1056 18.2094C50.7613 20.0739 49.044 22.1123 48.7346 22.2105C48.3491 22.3329 48.1073 22.1524 47.1126 21.0003C44.5013 17.9756 42.364 14.6414 41.345 12.003C39.9884 8.4901 40.2931 5.44911 42.2457 3.01612ZM55.1049 9.15259C55.6987 5.74299 53.543 2.41534 50.1753 1.54264C49.3868 1.33825 47.7449 1.33071 46.9315 1.52767C45.1811 1.95153 43.3288 3.44451 42.5581 5.05293C41.4053 7.45877 41.6664 9.8336 43.4651 13.3039C44.2641 14.8456 45.249 16.4063 46.2958 17.7897C47.1822 18.9609 48.4205 20.4323 48.5198 20.4323C48.6371 20.4323 50.1913 18.5066 51.0617 17.2833C53.364 14.0468 54.7314 11.2971 55.1049 9.15259ZM45.0957 6.52469C45.5967 5.44739 46.7197 4.58255 47.87 4.38785C50.459 3.94967 52.6902 6.14962 52.2771 8.73336C52.079 9.97328 51.2626 11.0637 50.1388 11.5896C49.2882 11.9877 48.0643 12.0339 47.1774 11.7014C46.2821 11.3659 45.3135 10.3973 44.978 9.50203C44.6436 8.60974 44.6916 7.39319 45.0957 6.52469ZM50.853 8.8558C51.1888 7.79013 50.7394 6.62323 49.7753 6.05819C48.3164 5.20315 46.4725 6.02577 46.1655 7.66855C45.88 9.19685 46.9874 10.5466 48.5269 10.5466C49.6269 10.5466 50.5259 9.89316 50.853 8.8558ZM1.63396 39.3C2.27341 36.1753 4.47336 33.8422 7.54838 33.0279C8.48687 32.7793 10.2631 32.7566 11.3174 32.9795C12.8973 33.3137 14.7007 34.4317 15.7241 35.7113C16.4386 36.6049 16.7689 37.1866 17.1152 38.1612C17.8767 40.3049 17.687 42.4375 16.4846 45.2529C15.3931 47.8082 13.2239 51.1313 10.7899 53.977C9.96284 54.9439 9.8909 55 9.47738 55C9.17457 55 9.02186 54.8716 8.22832 53.95C5.83259 51.1677 4.15773 48.7168 2.98027 46.2702C1.63127 43.4673 1.21851 41.3299 1.63396 39.3ZM15.9234 38.9007C15.2688 36.825 13.6006 35.127 11.5951 34.4954C8.43971 33.5015 5.1449 34.8465 3.63792 37.7436C2.19491 40.518 2.77254 43.6232 5.56219 48.088C6.72726 49.9527 9.33427 53.3316 9.54803 53.2541C9.72776 53.1889 11.7237 50.6083 12.6407 49.2555C14.3371 46.7533 15.4721 44.4978 15.9551 42.6698C16.2469 41.5651 16.2327 39.8819 15.9234 38.9007ZM6.68203 38.4442C7.20679 37.8606 8.01219 37.3776 8.70311 37.232C9.22173 37.1227 10.1506 37.1721 10.7448 37.3405C11.2972 37.4972 12.115 38.0823 12.5199 38.6105C13.7019 40.1525 13.537 42.4294 12.1508 43.7071C10.901 44.8593 9.07215 45.0853 7.64056 44.2646C5.58394 43.0857 5.10785 40.1951 6.68203 38.4442ZM9.75285 43.3492C12.1759 43.1739 12.7825 39.8098 10.5762 38.7825C8.17566 37.6647 5.97646 40.5672 7.72165 42.5499C8.26848 43.1712 8.88112 43.4122 9.75285 43.3492Z" fill="#3685BB"/>
<path fill-rule="evenodd" clip-rule="evenodd" d="M2.44505 18.2506C3.00064 19.0645 3.84278 19.5992 5.04239 19.5992H35.0872C36.5157 19.5992 37.5624 20.3456 38.22 21.401C38.865 22.436 39.1472 23.7747 39.1257 25.0741C39.1042 26.3744 38.7774 27.7056 38.1267 28.7316C37.4683 29.7697 36.4483 30.5294 35.0872 30.5294H24.2646C23.3778 30.5294 22.7136 30.9907 22.2469 31.7721C21.7691 32.572 21.5233 33.6809 21.539 34.8288C21.5548 35.9759 21.8309 37.091 22.3205 37.8984C22.8038 38.6953 23.4566 39.1444 24.2646 39.1444H51.8326C55.2943 39.1444 57.091 42.1285 57.1633 44.9173C57.1998 46.3282 56.8093 47.7719 55.9243 48.8754C55.0264 49.995 53.6524 50.7208 51.8326 50.7208H20.2263C19.8992 50.7208 19.634 50.4557 19.634 50.1286C19.634 49.8015 19.8992 49.5363 20.2263 49.5363H51.8326C53.3065 49.5363 54.3354 48.9632 55.0002 48.1343C55.6779 47.2893 56.0098 46.135 55.9791 44.948C55.9167 42.5408 54.4198 40.329 51.8326 40.329H24.2646C22.928 40.329 21.9388 39.5532 21.3077 38.5127C20.683 37.4827 20.3725 36.1479 20.3546 34.8451C20.3367 33.5431 20.6102 32.2021 21.2299 31.1646C21.8607 30.1086 22.8722 29.3449 24.2646 29.3449H35.0872C35.9429 29.3449 36.6258 28.8864 37.1263 28.0972C37.6345 27.2959 37.9225 26.1906 37.9413 25.0545C37.9602 23.9175 37.7084 22.8197 37.2147 22.0274C36.7337 21.2555 36.037 20.7837 35.0872 20.7837H5.04239C3.42439 20.7837 2.22736 20.0328 1.46669 18.9185C0.721252 17.8264 0.406413 16.4091 0.446062 15.0323C0.485745 13.6543 0.882111 12.2505 1.63766 11.1739C2.40201 10.0848 3.55156 9.315 5.04239 9.315H38.264C38.5911 9.315 38.8563 9.58018 38.8563 9.90728C38.8563 10.2344 38.5911 10.4996 38.264 10.4996H5.04239C4.01177 10.4996 3.1962 11.0153 2.60727 11.8544C2.00955 12.7061 1.66449 13.8733 1.63013 15.0664C1.59574 16.2607 1.87424 17.4144 2.44505 18.2506Z" fill="#3685BB" stroke="#3685BB" stroke-width="0.5" stroke-linecap="round" stroke-linejoin="round"/>
</svg>
