<svg width="30" height="30" viewBox="0 0 30 30" fill="none" xmlns="http://www.w3.org/2000/svg">
<path d="M28.992 22.437C28.545 22.122 23.634 18.858 23.031 18.489C22.767 18.33 22.449 18.249 22.101 18.249C21.654 18.249 21.156 18.378 20.67 18.633C20.199 18.882 18.765 19.698 18.066 20.097C17.448 19.662 15.999 18.552 13.716 16.266C11.445 14.004 10.326 12.54 9.88799 11.919C10.287 11.22 11.103 9.78902 11.349 9.31802C11.817 8.43002 11.871 7.54202 11.49 6.94502C11.133 6.38102 7.88099 1.44902 7.54499 0.984021C7.22999 0.546021 6.66299 0.309021 6.04799 0.309021C5.56199 0.309021 5.04899 0.456021 4.60199 0.765021C4.55999 0.801021 0.242998 3.92702 0.299998 5.70602C0.458998 10.704 5.31599 16.578 9.35999 20.625C13.404 24.672 19.278 29.532 24.297 29.691H24.339C26.094 29.691 29.181 25.431 29.211 25.389C30.027 24.228 29.73 22.956 28.992 22.437ZM27.726 24.318C26.562 25.929 24.915 27.612 24.267 27.855C20.829 27.693 16.002 24.669 10.662 19.329C5.32199 13.986 2.301 9.16802 2.139 5.73902C2.37 5.08802 4.05299 3.42902 5.65199 2.27402C5.76899 2.19302 5.91599 2.14502 6.05099 2.14502C6.08099 2.14502 6.10499 2.14802 6.12599 2.15402C6.64199 2.90102 9.41099 7.09502 9.91199 7.87502C9.91499 7.95902 9.88799 8.16602 9.72899 8.46602C9.55799 8.78402 9.03899 9.71102 8.29499 11.013L7.71899 12.024L8.38799 12.978C8.88599 13.686 10.074 15.225 12.417 17.568C14.772 19.923 16.305 21.105 17.01 21.6L17.964 22.269L18.975 21.693C19.953 21.132 21.138 20.463 21.522 20.259C21.831 20.094 22.041 20.082 22.098 20.082C22.11 20.082 22.116 20.082 22.125 20.085C22.824 20.523 27.108 23.367 27.864 23.883C27.876 23.961 27.864 24.12 27.726 24.318Z" fill="white"/>
</svg>
