<svg width="27" height="23" viewBox="0 0 27 23" fill="none" xmlns="http://www.w3.org/2000/svg">
<path d="M23.255 0H3.67058C1.6429 0 -0.00012207 1.64303 -0.00012207 3.67071V18.3563C-0.00012207 20.384 1.6429 22.027 3.67058 22.027H23.2522C25.2799 22.027 26.923 20.384 26.923 18.3563V3.67071C26.9257 1.64303 25.2827 0 23.255 0ZM23.255 2.44805C23.3951 2.44805 23.5325 2.47278 23.6589 2.51674L13.4628 10.6714L3.26944 2.51674C3.39583 2.47278 3.53046 2.44805 3.67333 2.44805H23.255ZM23.255 19.5817H3.67058C2.99469 19.5817 2.44793 19.0349 2.44793 18.359V4.99502L12.699 13.1964C12.9215 13.375 13.1935 13.4657 13.4628 13.4657C13.732 13.4657 14.0041 13.375 14.2266 13.1964L24.4776 4.99502V18.359C24.4776 19.0349 23.9309 19.5817 23.255 19.5817Z" fill="white"/>
</svg>
