<svg width="27" height="23" viewBox="0 0 27 23" fill="none" xmlns="http://www.w3.org/2000/svg">
<path fill-rule="evenodd" clip-rule="evenodd" d="M26.423 3.67003C26.4253 1.91915 25.0067 0.5 23.255 0.5H3.67058C1.91905 0.5 0.499878 1.91917 0.499878 3.67071V18.3563C0.499878 20.1078 1.91904 21.527 3.67058 21.527H23.2522C25.0038 21.527 26.423 20.1078 26.423 18.3563V3.67003ZM24.6781 2.34186L13.4627 11.3117L2.25039 2.34181L3.10518 2.04449C3.28154 1.98315 3.47161 1.94805 3.67333 1.94805H23.255C23.4534 1.94805 23.6462 1.98295 23.8231 2.04449L24.6781 2.34186ZM1.94793 3.95466L13.0113 12.806C13.1431 12.9117 13.3047 12.9657 13.4628 12.9657C13.6209 12.9657 13.7819 12.9122 13.9137 12.8064L24.9776 3.95466V18.359C24.9776 19.3111 24.207 20.0817 23.255 20.0817H3.67058C2.71855 20.0817 1.94793 19.3111 1.94793 18.359V3.95466ZM26.923 3.67071C26.9257 1.64303 25.2827 0 23.255 0H3.67058C1.6429 0 -0.00012207 1.64303 -0.00012207 3.67071V18.3563C-0.00012207 20.384 1.6429 22.027 3.67058 22.027H23.2522C25.2799 22.027 26.923 20.384 26.923 18.3563V3.67071ZM13.4628 10.6714L3.26944 2.51674C3.39583 2.47278 3.53046 2.44805 3.67333 2.44805H23.255C23.3951 2.44805 23.5325 2.47278 23.6589 2.51674L13.4628 10.6714ZM24.4776 18.359C24.4776 19.0349 23.9309 19.5817 23.255 19.5817H3.67058C2.99469 19.5817 2.44793 19.0349 2.44793 18.359V4.99502L12.699 13.1964C12.9215 13.375 13.1935 13.4657 13.4628 13.4657C13.732 13.4657 14.0041 13.375 14.2266 13.1964L24.4776 4.99502V18.359Z" fill="#1396C2"/>
</svg>
