<svg width="30" height="30" viewBox="0 0 30 30" fill="none" xmlns="http://www.w3.org/2000/svg">
<path d="M28.527 9.27902C26.976 5.66402 24.342 3.03602 20.7 1.48202C18.879 0.705021 16.971 0.309021 14.976 0.309021C12.984 0.309021 11.088 0.702021 9.26999 1.48202C5.65499 3.03302 3.00899 5.65802 1.45799 9.27902C0.677988 11.091 0.299988 12.99 0.299988 14.985C0.299988 16.977 0.677988 18.894 1.45799 20.709C3.01199 24.33 5.65799 26.97 9.26999 28.521C11.091 29.301 12.984 29.694 14.976 29.694C16.968 29.694 18.876 29.298 20.697 28.521C24.342 26.967 26.976 24.321 28.524 20.709C29.304 18.888 29.697 16.98 29.697 14.985C29.7 12.99 29.307 11.097 28.527 9.27902ZM26.181 21.477C25.026 23.457 23.445 25.026 21.456 26.187C19.476 27.342 17.31 27.924 14.979 27.924C13.227 27.924 11.556 27.585 9.96299 26.895C8.37299 26.205 6.99599 25.296 5.84699 24.147C4.69799 22.998 3.78299 21.609 3.09899 20.016C2.41799 18.429 2.08499 16.737 2.08499 14.985C2.08499 12.654 2.65799 10.497 3.80399 8.52302C4.95599 6.54302 6.53699 4.97102 8.51399 3.81302C10.491 2.65502 12.645 2.07602 14.976 2.07602C17.307 2.07602 19.476 2.65802 21.453 3.81302C23.445 4.97402 25.023 6.54602 26.178 8.52302C27.336 10.5 27.915 12.654 27.915 14.985C27.915 17.316 27.342 19.488 26.181 21.477Z" fill="white"/>
<path d="M15.909 14.856V6.52799C15.909 6.02999 15.474 5.62799 14.976 5.62799C14.511 5.62799 14.091 6.02999 14.091 6.52799V14.982C14.091 14.997 14.124 15.063 14.124 15.111C14.091 15.399 14.172 15.642 14.364 15.834L19.17 20.64C19.491 20.961 20.085 20.961 20.409 20.64C20.778 20.271 20.754 19.734 20.409 19.386L15.909 14.856Z" fill="white"/>
</svg>
